<svg width="631" height="444" viewBox="0 0 631 444" fill="none" xmlns="http://www.w3.org/2000/svg">
<path d="M314.141 443.775C310.29 443.772 306.445 443.452 302.647 442.817C267.777 436.992 247.21 408.511 225.431 378.36C210.125 357.174 194.299 335.26 173.018 321.829C152.585 308.931 128.073 304.561 104.363 300.308C91.449 298.008 78.0968 295.626 65.4282 291.901C27.1772 280.651 -7.88622 246.448 2.16693 210.821C9.88697 183.468 40.0018 170.37 57.2623 164.998C64.1502 162.853 71.2907 161.035 78.2008 159.276C94.7852 155.054 111.934 150.69 126.498 141.526C147.302 128.421 160.848 106.9 173.94 86.0923C181.37 74.2191 189.09 62.0118 198.11 51.2665C224.993 19.2458 268.468 0.129883 314.416 0.129883C353.009 0.129883 388.585 13.2275 414.599 37.0112C425.945 47.4003 435.983 59.7559 445.694 71.7183C464.114 94.4036 481.508 115.835 507.492 125.794C521.29 131.085 536.418 132.406 551.041 133.689C558.196 134.32 565.596 134.966 572.796 136.071C588.927 138.542 617.504 146.282 627.728 170.333C640.263 199.831 614.54 234.286 582.641 247.962C569.564 253.565 555.506 257.149 541.901 260.577C524.202 265.082 505.894 269.742 489.889 278.899C460.317 295.848 441.637 326.029 423.567 355.222C418.819 362.895 413.908 370.806 408.885 378.375C395.8 398.092 360.402 443.775 314.141 443.775ZM314.379 2.44517C269.107 2.44517 226.279 21.2568 199.827 52.7655C190.911 63.3921 183.25 75.5697 175.842 87.3391C162.616 108.362 148.944 130.105 127.679 143.485C112.818 152.835 95.4985 157.25 78.7358 161.517C71.8554 163.269 64.7446 165.079 57.9311 167.209C41.109 172.448 11.7891 185.16 4.35886 211.474C-5.30048 245.758 28.8787 278.796 66.0301 289.741C78.5798 293.452 91.8725 295.804 104.727 298.09C128.652 302.357 153.395 306.764 174.207 319.899C195.866 333.576 211.827 355.667 227.259 377.039C248.755 406.797 269.055 434.922 302.996 440.576C306.679 441.192 310.407 441.502 314.141 441.504C359.295 441.504 394.098 396.534 406.968 377.195C411.968 369.685 416.872 361.76 421.613 354.102C439.832 324.671 458.667 294.231 488.745 277C504.995 267.687 523.452 262.989 541.307 258.448C554.823 255.004 568.799 251.45 581.713 245.914C612.6 232.675 637.603 199.527 625.596 171.283C615.446 147.396 585.027 140.323 572.425 138.387C565.299 137.296 557.936 136.65 550.818 136.027C536.031 134.728 520.747 133.385 506.645 127.983C480.082 117.801 461.684 95.1383 443.889 73.2098C434.229 61.3366 424.243 49.0106 413.023 38.7476C387.434 15.3202 352.4 2.45259 314.379 2.45259V2.44517Z" fill="#6A1AB7"/>
</svg>
